<svg width="1280" height="720" viewBox="0 0 1280 720" xmlns="http://www.w3.org/2000/svg">
  <rect width="1280" height="720" fill="#f8f3e8"/>
  <rect x="0" y="0" width="640" height="720" fill="#eef6e8"/>
  <text x="40" y="80" font-size="28" font-family="sans-serif" fill="#4f6840">정원 화면 영역 (좌측 1/2)</text>
  <rect x="640" y="0" width="640" height="720" fill="#fffdf4" stroke="#1f1f1f" stroke-width="4"/>
  <rect x="640" y="0" width="10" height="720" fill="#1f1f1f"/>
  <rect x="670" y="35" width="580" height="50" rx="6" fill="#ffe27a" stroke="#1f1f1f" stroke-width="3"/>
  <text x="690" y="67" font-size="22" font-family="sans-serif" fill="#1f1f1f">양파쿵야 라운지</text>
  <text x="1218" y="67" font-size="20" font-family="sans-serif" fill="#1f1f1f">✕</text>

  <rect x="670" y="100" width="580" height="430" rx="6" fill="#fff" stroke="#1f1f1f" stroke-width="3"/>
  <rect x="685" y="116" width="410" height="36" rx="4" fill="#fff5c7" stroke="#caa742" stroke-width="2"/>
  <text x="700" y="139" font-size="16" font-family="sans-serif" fill="#5f4a00">짧은 답장보다, 지금 마음에 남은 장면을 2~3문장으로 들려줘.</text>

  <rect x="700" y="185" width="320" height="60" rx="14" fill="#f0f0f0"/>
  <text x="715" y="221" font-size="18" font-family="sans-serif" fill="#333">오늘 가장 오래 남은 장면은 뭐야?</text>

  <rect x="900" y="275" width="330" height="90" rx="14" fill="#8bc34a"/>
  <text x="916" y="309" font-size="17" font-family="sans-serif" fill="#fff">퇴근길 노을을 보면서</text>
  <text x="916" y="335" font-size="17" font-family="sans-serif" fill="#fff">갑자기 마음이 편해졌어.</text>

  <rect x="670" y="548" width="320" height="130" rx="6" fill="#fff" stroke="#1f1f1f" stroke-width="3"/>
  <text x="685" y="579" font-size="15" font-family="sans-serif" fill="#666">쿵야와 같이 한 호흡으로 이야기해봐요.</text>
  <text x="685" y="601" font-size="14" font-family="sans-serif" fill="#666">(Enter 전송 / Shift+Enter 줄바꿈)</text>

  <rect x="1005" y="548" width="110" height="60" rx="6" fill="#f0f0f0" stroke="#1f1f1f" stroke-width="2"/>
  <text x="1040" y="585" font-size="18" font-family="sans-serif" fill="#333">전송</text>

  <rect x="1125" y="548" width="125" height="60" rx="6" fill="#ff9800" stroke="#1f1f1f" stroke-width="2"/>
  <text x="1152" y="585" font-size="18" font-family="sans-serif" fill="#fff">회고하기</text>

  <text x="36" y="44" font-size="22" font-family="sans-serif" fill="#444">쿵야 대화화면 2분할 프리뷰 (Mock)</text>
</svg>
